<?xml version="1.0" encoding="UTF-8"?>
<svg id="Layer_2" data-name="Layer 2" xmlns="http://www.w3.org/2000/svg" viewBox="0 0 34.66 34.65">
  <defs>
    <style>
      .cls-1 {
        fill: #816ef6;
        stroke-width: 0px;
      }
    </style>
  </defs>
  <g id="Layer_1-2" data-name="Layer 1">
    <path class="cls-1" d="M17.3,0c.97.01,1.85.36,2.71.77,1.68.81,3.18,1.91,4.62,3.08,1.27,1.03,2.47,2.13,3.6,3.3,1.9,1.97,3.68,4.04,5.07,6.41.61,1.03,1.13,2.09,1.31,3.3.14.92-.13,1.76-.47,2.58-.73,1.75-1.81,3.28-2.98,4.75-2.39,2.99-5.11,5.65-8.21,7.91-1.15.83-2.36,1.56-3.67,2.13-1.43.61-2.8.53-4.19-.1-1.68-.76-3.18-1.78-4.61-2.92-3.28-2.62-6.17-5.6-8.53-9.08-.56-.83-1.03-1.7-1.45-2.61-.69-1.5-.66-2.96.03-4.45.8-1.73,1.86-3.28,3.05-4.75,2.39-2.96,5.1-5.61,8.2-7.83,1.32-.95,2.69-1.8,4.26-2.29.41-.13.83-.22,1.26-.21ZM7.37,15.14c.04.63.27,1.35.55,2.05,1.1,2.78,2.57,5.36,4.33,7.77.54.74,1.12,1.45,1.86,2.01.29.22.62.35,1,.31.6-.06,1.18-.22,1.74-.43,2.62-.98,5.04-2.34,7.34-3.91.91-.62,1.78-1.29,2.53-2.11.42-.46.63-.97.49-1.62-.11-.52-.24-1.03-.43-1.53-.77-2.06-1.8-3.99-2.96-5.85-.84-1.34-1.72-2.65-2.86-3.77-.48-.47-1.01-.79-1.72-.65-.46.09-.91.2-1.35.36-2.32.84-4.47,2.01-6.54,3.34-1.19.76-2.34,1.56-3.32,2.59-.34.36-.67.75-.66,1.43Z"/>
  </g>
</svg>